<?xml version="1.0" encoding="utf-8"?>
<!-- Generator: Adobe Illustrator 28.6.0, SVG Export Plug-In . SVG Version: 9.03 Build 54939)  -->
<svg version="1.2" baseProfile="tiny" id="Layer_1" xmlns="http://www.w3.org/2000/svg" xmlns:xlink="http://www.w3.org/1999/xlink"
	 x="0px" y="0px" viewBox="0 0 612 792" overflow="visible" xml:space="preserve">
<polyline fill="#FFFFFF" stroke="#000000" stroke-miterlimit="10" points="407.25,260.18 407.97,260.17 407.97,260.81 
	402.37,260.81 "/>
<path fill="#FFFFFF" stroke="#000000" stroke-miterlimit="10" d="M407.97,309.53v0.64l-0.72-0.01c-1.67-0.05-3.31-0.26-4.88-0.63
	H407.97z"/>
<path fill="#FFFFFF" stroke="#00A651" stroke-miterlimit="10" d="M407.97,199.43c47.36,0,85.74,38.39,85.74,85.74
	c0,21.11-7.62,40.43-20.28,55.37"/>
<polygon fill="#FFFFFF" stroke="#000000" stroke-miterlimit="10" points="379.94,260.81 379.5,260.81 379.7,260.38 "/>
<polygon fill="#FFFFFF" stroke="#000000" stroke-miterlimit="10" points="407.97,310.17 407.25,310.16 376.25,309.93 356.78,309.79 
	356.9,309.53 407.61,309.53 "/>
<path fill="#FFFFFF" stroke="#00A651" stroke-miterlimit="10" d="M407.97,260.81v-0.64c13.81,0,25,11.19,25,25
	c0,13.81-11.19,25-25,25v-0.64"/>
<path fill="#FFFFFF" stroke="#000000" stroke-miterlimit="10" d="M407.97,419.63v1.28c-2.76,0-5.41-0.45-7.89-1.28H407.97z"/>
<path fill="#FFFFFF" stroke="#00A651" stroke-miterlimit="10" d="M473.43,340.54c12.66,14.93,20.28,34.26,20.28,55.37
	c0,47.35-38.38,85.73-85.74,85.73c-3.55,0-7.05-0.22-10.49-0.64"/>
<path fill="#FFFFFF" stroke="#00A651" stroke-miterlimit="10" d="M325.57,419.63h74.51h7.89v1.28c13.81,0,25-11.2,25-25
	c0-13.81-11.19-25-25-25h-69.8h-12.22v0.32"/>
<polyline fill="#FFFFFF" stroke="#000000" stroke-miterlimit="10" points="379.7,260.38 407.25,260.18 407.97,260.17 407.97,260.81 
	402.37,260.81 "/>
<polyline fill="none" stroke="#000000" stroke-miterlimit="10" points="379.94,260.81 379.5,260.81 322.24,260.81 "/>
<line fill="none" stroke="#000000" stroke-miterlimit="10" x1="407.97" y1="199.43" x2="322.24" y2="199.43"/>
<polyline fill="none" stroke="#000000" stroke-miterlimit="10" points="314.48,370.91 322.24,370.91 325.95,370.91 338.17,370.91 
	"/>
<polygon fill="#FFFFFF" stroke="#000000" stroke-miterlimit="10" points="407.97,309.53 407.97,310.17 407.25,310.16 376.25,309.93 
	356.78,309.79 322.24,309.53 "/>
<polyline fill="#FFFFFF" stroke="#000000" stroke-miterlimit="10" points="407.97,420.91 407.97,419.63 400.08,419.63 
	333.54,419.63 330.2,419.63 325.57,419.63 "/>
<polyline fill="none" stroke="#000000" stroke-miterlimit="10" points="369.41,481 397.48,481 405.44,481 407.97,481 "/>
<polyline fill="none" stroke="#000000" stroke-miterlimit="10" points="322.24,370.91 325.95,370.91 338.17,370.91 "/>
<polygon fill="#FFFFFF" stroke="#00A651" stroke-miterlimit="10" points="407.97,309.53 407.97,310.17 407.25,310.16 376.25,309.93 
	356.78,309.79 322.24,309.53 "/>
<path fill="#FFFFFF" stroke="#00A651" stroke-miterlimit="10" d="M415.93,481v0.64c-3.55,0-7.05-0.22-10.49-0.64H369.4
	c-21.65,0-39.2-17.55-39.2-39.2v-22.17h3.33h74.51h7.89v1.28"/>
<polyline fill="#FFFFFF" stroke="#00A651" stroke-miterlimit="10" points="379.7,260.38 407.25,260.18 407.97,260.17 407.97,260.81 
	402.37,260.81 "/>
<polyline fill="none" stroke="#00A651" stroke-miterlimit="10" points="379.94,260.81 379.5,260.81 322.24,260.81 "/>
<line fill="none" stroke="#00A651" stroke-miterlimit="10" x1="407.97" y1="199.43" x2="322.24" y2="199.43"/>
<line fill="none" stroke="#000000" stroke-miterlimit="10" x1="322.24" y1="199.43" x2="279.37" y2="199.43"/>
<line fill="none" stroke="#000000" stroke-miterlimit="10" x1="356.78" y1="309.79" x2="322.24" y2="309.53"/>
<polyline fill="none" stroke="#00A651" stroke-miterlimit="10" points="338.17,370.91 345.73,370.91 407.97,370.91 "/>
<path fill="#FFFFFF" stroke="#00A651" stroke-miterlimit="10" d="M361.97,316.52v-6.61h-7.56h-71.9v21.37
	c0,17.9,10.9,33.06,25.93,38.17c1.95,0.66,3.96,1.16,6.04,1.46c0.13,0.02,0.26,0.04,0.39,0.06c1.54,0.21,3.12,0.32,4.72,0.32h22.6
	h19.78v-0.38"/>
<linearGradient id="SVGID_1_" gradientUnits="userSpaceOnUse" x1="174.27" y1="230.12" x2="224.27" y2="230.12">
	<stop  offset="0" style="stop-color:#2484C6"/>
	<stop  offset="1" style="stop-color:#2484C6;stop-opacity:0"/>
</linearGradient>
<circle fill="url(#SVGID_1_)" stroke="#000000" stroke-miterlimit="10" cx="199.27" cy="230.12" r="25"/>
<path fill="#FFFFFF" stroke="#00A651" stroke-miterlimit="10" d="M322.24,260.81h-64.3h-0.01c-11.83,0-21.43-9.6-21.43-21.43v-18.52
	c0-6.45,2.85-12.24,7.37-16.16"/>
<line fill="none" stroke="#00A651" stroke-miterlimit="10" x1="322.24" y1="199.43" x2="279.37" y2="199.43"/>
<linearGradient id="SVGID_00000063624865059231591380000007612866777406018746_" gradientUnits="userSpaceOnUse" x1="171.3506" y1="375.4633" x2="227.1948" y2="375.4633">
	<stop  offset="0" style="stop-color:#2484C6"/>
	<stop  offset="1" style="stop-color:#2484C6;stop-opacity:0"/>
</linearGradient>
<path fill="url(#SVGID_00000063624865059231591380000007612866777406018746_)" stroke="#000000" stroke-miterlimit="10" d="
	M199.27,269.29L199.27,269.29c15.42,0,27.92,12.5,27.92,27.92v156.51c0,15.42-12.5,27.92-27.92,27.92h0
	c-15.42,0-27.92-12.5-27.92-27.92V297.21C171.35,281.79,183.85,269.29,199.27,269.29z"/>
<g>
	<path d="M755.77,456.81c3.22,0,3.22-5,0-5C752.55,451.81,752.54,456.81,755.77,456.81L755.77,456.81z"/>
</g>
<circle fill="none" stroke="#000000" stroke-miterlimit="10" cx="199.27" cy="230.12" r="25"/>
<path fill="#FFFFFF" stroke="#00A651" stroke-miterlimit="10" d="M257.94,260.81L257.94,260.81c-11.84,0-21.44-9.6-21.44-21.44
	v-18.51c0-6.45,2.85-12.24,7.37-16.16c3.77-3.28,8.69-5.27,14.06-5.27h0.01"/>
<polyline fill="none" stroke="#00A651" stroke-miterlimit="10" points="284.46,199.43 279.37,199.43 257.94,199.43 "/>
<path fill="#FFFFFF" stroke="#00A651" stroke-miterlimit="10" d="M162.04,260.17h-31.88c-15.94,0-28.86-12.92-28.86-28.86v0
	c0-17.61,14.27-31.88,31.88-31.88h12.92c8.8,0,15.94,7.14,15.94,15.94V260.17z"/>
</svg>
